<svg width="100" height="100" viewBox="0 0 100 100" fill="none" xmlns="http://www.w3.org/2000/svg">

<path d="M18.456 70V34.24H24.696L38.088 52.432H35.112L48.216 34.24H54.456V70H47.88V41.68L50.424 42.304L36.84 60.4H36.072L22.824 42.304L24.984 41.68V70H18.456ZM66.2438 70.576C63.6838 70.576 61.3158 70.112 59.1398 69.184C56.9638 68.256 55.0598 66.96 53.4278 65.296C51.7958 63.632 50.5158 61.68 49.5878 59.44C48.6918 57.2 48.2438 54.752 48.2438 52.096C48.2438 49.44 48.6758 46.992 49.5398 44.752C50.4358 42.48 51.6838 40.528 53.2838 38.896C54.9158 37.232 56.8198 35.952 58.9958 35.056C61.1718 34.128 63.5398 33.664 66.0998 33.664C68.6598 33.664 70.9478 34.096 72.9637 34.96C75.0118 35.824 76.7398 36.976 78.1478 38.416C79.5558 39.824 80.5638 41.376 81.1718 43.072L75.3638 45.856C74.6918 44 73.5558 42.496 71.9558 41.344C70.3558 40.192 68.4038 39.616 66.0998 39.616C63.8598 39.616 61.8758 40.144 60.1478 41.2C58.4518 42.256 57.1238 43.712 56.1638 45.568C55.2358 47.424 54.7718 49.6 54.7718 52.096C54.7718 54.592 55.2518 56.784 56.2118 58.672C57.2038 60.528 58.5638 61.984 60.2918 63.04C62.0198 64.096 64.0038 64.624 66.2438 64.624C68.0678 64.624 69.7478 64.272 71.2838 63.568C72.8198 62.832 74.0518 61.808 74.9798 60.496C75.9078 59.152 76.3718 57.568 76.3718 55.744V53.008L79.3478 55.6H66.0998V50.08H82.8998V53.68C82.8998 56.432 82.4358 58.864 81.5078 60.976C80.5798 63.088 79.3158 64.864 77.7158 66.304C76.1478 67.712 74.3718 68.784 72.3878 69.52C70.4038 70.224 68.3558 70.576 66.2438 70.576Z" fill="#D4A015"/>
</svg>
