<svg width="350" height="100" viewBox="0 0 350 100" fill="none" xmlns="http://www.w3.org/2000/svg">

<path d="M19.608 76V28.32H27.928L45.784 52.576H41.816L59.288 28.32H67.608V76H58.84V38.24L62.232 39.072L44.12 63.2H43.096L25.432 39.072L28.312 38.24V76H19.608ZM93.821 76.768C90.3223 76.768 87.0583 76.1493 84.029 74.912C80.9997 73.6747 78.3543 71.9467 76.093 69.728C73.8317 67.5093 72.061 64.9067 70.781 61.92C69.5437 58.8907 68.925 55.6267 68.925 52.128C68.925 48.5867 69.5437 45.3227 70.781 42.336C72.0183 39.3493 73.7677 36.7467 76.029 34.528C78.2903 32.3093 80.9357 30.6027 83.965 29.408C86.9943 28.1707 90.2797 27.552 93.821 27.552C97.3623 27.552 100.648 28.1707 103.677 29.408C106.706 30.6453 109.352 32.3733 111.613 34.592C113.874 36.768 115.624 39.3493 116.861 42.336C118.141 45.3227 118.781 48.5867 118.781 52.128C118.781 55.6267 118.141 58.8907 116.861 61.92C115.581 64.9067 113.81 67.5093 111.549 69.728C109.288 71.9467 106.642 73.6747 103.613 74.912C100.626 76.1493 97.3623 76.768 93.821 76.768ZM93.821 68.832C96.1677 68.832 98.3223 68.4267 100.285 67.616C102.248 66.7627 103.954 65.5893 105.405 64.096C106.898 62.6027 108.029 60.832 108.797 58.784C109.608 56.736 110.013 54.5173 110.013 52.128C110.013 49.7387 109.608 47.5413 108.797 45.536C108.029 43.488 106.898 41.7173 105.405 40.224C103.954 38.688 102.248 37.5147 100.285 36.704C98.3223 35.8933 96.1677 35.488 93.821 35.488C91.517 35.488 89.3837 35.8933 87.421 36.704C85.4583 37.5147 83.7303 38.688 82.237 40.224C80.7863 41.7173 79.6557 43.488 78.845 45.536C78.0343 47.5413 77.629 49.7387 77.629 52.128C77.629 54.5173 78.0343 56.736 78.845 58.784C79.6557 60.832 80.7863 62.6027 82.237 64.096C83.7303 65.5893 85.4583 66.7627 87.421 67.616C89.3837 68.4267 91.517 68.832 93.821 68.832ZM120.12 76V28.32H126.904L153.144 63.648L149.625 64.352V28.32H158.328V76H151.48L125.624 40.416L128.824 39.712V76H120.12ZM184.646 76.768C181.147 76.768 177.883 76.1493 174.854 74.912C171.825 73.6747 169.179 71.9467 166.918 69.728C164.657 67.5093 162.886 64.9067 161.606 61.92C160.369 58.8907 159.75 55.6267 159.75 52.128C159.75 48.5867 160.369 45.3227 161.606 42.336C162.843 39.3493 164.593 36.7467 166.854 34.528C169.115 32.3093 171.761 30.6027 174.79 29.408C177.819 28.1707 181.105 27.552 184.646 27.552C188.187 27.552 191.473 28.1707 194.502 29.408C197.531 30.6453 200.177 32.3733 202.438 34.592C204.699 36.768 206.449 39.3493 207.686 42.336C208.966 45.3227 209.606 48.5867 209.606 52.128C209.606 55.6267 208.966 58.8907 207.686 61.92C206.406 64.9067 204.635 67.5093 202.374 69.728C200.113 71.9467 197.467 73.6747 194.438 74.912C191.451 76.1493 188.187 76.768 184.646 76.768ZM184.646 68.832C186.993 68.832 189.147 68.4267 191.11 67.616C193.073 66.7627 194.779 65.5893 196.23 64.096C197.723 62.6027 198.854 60.832 199.622 58.784C200.433 56.736 200.838 54.5173 200.838 52.128C200.838 49.7387 200.433 47.5413 199.622 45.536C198.854 43.488 197.723 41.7173 196.23 40.224C194.779 38.688 193.073 37.5147 191.11 36.704C189.147 35.8933 186.993 35.488 184.646 35.488C182.342 35.488 180.209 35.8933 178.246 36.704C176.283 37.5147 174.555 38.688 173.062 40.224C171.611 41.7173 170.481 43.488 169.67 45.536C168.859 47.5413 168.454 49.7387 168.454 52.128C168.454 54.5173 168.859 56.736 169.67 58.784C170.481 60.832 171.611 62.6027 173.062 64.096C174.555 65.5893 176.283 66.7627 178.246 67.616C180.209 68.4267 182.342 68.832 184.646 68.832ZM210.945 76V28.32H219.649V68.32H240.065V76H210.945ZM261.534 76.768C258.035 76.768 254.771 76.1493 251.742 74.912C248.712 73.6747 246.067 71.9467 243.806 69.728C241.544 67.5093 239.774 64.9067 238.494 61.92C237.256 58.8907 236.638 55.6267 236.638 52.128C236.638 48.5867 237.256 45.3227 238.494 42.336C239.731 39.3493 241.48 36.7467 243.742 34.528C246.003 32.3093 248.648 30.6027 251.678 29.408C254.707 28.1707 257.992 27.552 261.534 27.552C265.075 27.552 268.36 28.1707 271.39 29.408C274.419 30.6453 277.064 32.3733 279.326 34.592C281.587 36.768 283.336 39.3493 284.574 42.336C285.854 45.3227 286.494 48.5867 286.494 52.128C286.494 55.6267 285.854 58.8907 284.574 61.92C283.294 64.9067 281.523 67.5093 279.262 69.728C277 71.9467 274.355 73.6747 271.326 74.912C268.339 76.1493 265.075 76.768 261.534 76.768ZM261.534 68.832C263.88 68.832 266.035 68.4267 267.998 67.616C269.96 66.7627 271.667 65.5893 273.118 64.096C274.611 62.6027 275.742 60.832 276.51 58.784C277.32 56.736 277.726 54.5173 277.726 52.128C277.726 49.7387 277.32 47.5413 276.51 45.536C275.742 43.488 274.611 41.7173 273.118 40.224C271.667 38.688 269.96 37.5147 267.998 36.704C266.035 35.8933 263.88 35.488 261.534 35.488C259.23 35.488 257.096 35.8933 255.134 36.704C253.171 37.5147 251.443 38.688 249.95 40.224C248.499 41.7173 247.368 43.488 246.558 45.536C245.747 47.5413 245.342 49.7387 245.342 52.128C245.342 54.5173 245.747 56.736 246.558 58.784C247.368 60.832 248.499 62.6027 249.95 64.096C251.443 65.5893 253.171 66.7627 255.134 67.616C257.096 68.4267 259.23 68.832 261.534 68.832ZM310.425 76.768C307.012 76.768 303.854 76.1493 300.953 74.912C298.052 73.6747 295.513 71.9467 293.337 69.728C291.161 67.5093 289.454 64.9067 288.217 61.92C287.022 58.9333 286.425 55.6693 286.425 52.128C286.425 48.5867 287.001 45.3227 288.153 42.336C289.348 39.3067 291.012 36.704 293.145 34.528C295.321 32.3093 297.86 30.6027 300.761 29.408C303.662 28.1707 306.82 27.552 310.233 27.552C313.646 27.552 316.697 28.128 319.385 29.28C322.116 30.432 324.42 31.968 326.297 33.888C328.174 35.7653 329.518 37.8347 330.329 40.096L322.585 43.808C321.689 41.3333 320.174 39.328 318.041 37.792C315.908 36.256 313.305 35.488 310.233 35.488C307.246 35.488 304.601 36.192 302.297 37.6C300.036 39.008 298.265 40.9493 296.985 43.424C295.748 45.8987 295.129 48.8 295.129 52.128C295.129 55.456 295.769 58.3787 297.049 60.896C298.372 63.3707 300.185 65.312 302.489 66.72C304.793 68.128 307.438 68.832 310.425 68.832C312.857 68.832 315.097 68.3627 317.145 67.424C319.193 66.4427 320.836 65.0773 322.073 63.328C323.31 61.536 323.929 59.424 323.929 56.992V53.344L327.897 56.8H310.233V49.44H332.633V54.24C332.633 57.9093 332.014 61.152 330.777 63.968C329.54 66.784 327.854 69.152 325.721 71.072C323.63 72.9493 321.262 74.3787 318.617 75.36C315.972 76.2987 313.241 76.768 310.425 76.768Z" fill="#D4A015"/>
</svg>
